<svg xmlns="http://www.w3.org/2000/svg" viewBox="0 0 200 238.26"><defs><style>.cls-1{fill:#f4f5f7;}.cls-2{fill:#0080ff;}.cls-3{fill:#172b4d;}</style></defs><title>w</title><g id="Layer_2" data-name="Layer 2"><g id="Layer_1-2" data-name="Layer 1"><g id="w"><rect id="_3" data-name="3" fill="#f4f5f7" width="200" height="200" rx="15" ry="15"/><g id="_1" data-name="1"><g id="Layer_1-2-2" data-name="Layer 1-2"><rect fill="#0080ff" x="119.68" y="119.85" width="25.48" height="25.48"/><path fill="#172b4d" d="M100.9,54.67H54.83v90.66H74.11V118.21H100.9a31.78,31.78,0,0,0,0-63.54Zm-1.31,45.41H74.11V72.64H100.9A13.71,13.71,0,0,1,113.31,87.5,13.92,13.92,0,0,1,100.9,99.92,6.27,6.27,0,0,1,99.59,100.08Z"/></g></g><g id="_5" data-name="5"><polygon fill="#f4f5f7" points="24.81 208.81 17.66 211.79 17.6 213.01 25.26 209.77 24.81 208.81"/><rect fill="#f4f5f7" x="38.59" y="215.16" width="2.2" height="2.21" transform="translate(-141.29 91.41) rotate(-45)"/><rect fill="#f4f5f7" x="47.96" y="228.63" width="2.19" height="2.21" transform="translate(-148.04 101.91) rotate(-44.98)"/><rect fill="#f4f5f7" x="44.05" y="228.61" width="2.19" height="2.21" transform="translate(-149.58 99.75) rotate(-45.16)"/><rect fill="#f4f5f7" x="56.29" y="228.93" width="2.21" height="2.18" transform="translate(-145.84 107.95) rotate(-45)"/><polygon fill="#f4f5f7" points="53.24 228.47 51.67 230.04 53.22 231.59 54.78 230.03 53.24 228.47"/><path fill="#f4f5f7" d="M51.69,226.61h2.06a10.52,10.52,0,0,0,1.51-.11,5.37,5.37,0,0,0,1.34-.36,3.56,3.56,0,0,0,1.08-.69,3,3,0,0,0,.76-1.07,3.83,3.83,0,0,0,.29-1.53c0-.1,0-.2,0-.3a10.69,10.69,0,0,0-.5-2.44,9.05,9.05,0,0,0-.3-.88c-.11-.28-.21-.52-.3-.73s-.17-.38-.23-.5l-.08-.2-1.7.84.83,2a6.25,6.25,0,0,1,.3.93,3.6,3.6,0,0,1,.13.69c0,.17,0,.3,0,.38a2.9,2.9,0,0,1,0,.43,1.88,1.88,0,0,1-.14.5,1.52,1.52,0,0,1-.54.63,2.7,2.7,0,0,1-.79.34,4.84,4.84,0,0,1-1,.13q-.53,0-1.08,0H51.69a1.32,1.32,0,0,1-.79-.22,1.61,1.61,0,0,1-.49-.55,2.63,2.63,0,0,1-.25-.73,5.22,5.22,0,0,1-.1-.74c0-.34-.06-.64-.09-.91s0-.51-.09-.74-.07-.45-.11-.65-.1-.42-.16-.65l-1.79.51a10.35,10.35,0,0,1,.29,1.29,8.26,8.26,0,0,1,.08,1.1,2.55,2.55,0,0,1-.19,1,1.74,1.74,0,0,1-.6.72,3,3,0,0,1-1,.43,7.6,7.6,0,0,1-1.55.14H43.58a1.33,1.33,0,0,1-.8-.22,1.61,1.61,0,0,1-.49-.55,3,3,0,0,1-.25-.73,5.22,5.22,0,0,1-.1-.74c0-.34-.06-.64-.09-.91s-.05-.51-.09-.74-.07-.45-.11-.65-.1-.42-.16-.65l-1.79.51a10.35,10.35,0,0,1,.29,1.29,8.26,8.26,0,0,1,.08,1.1,2,2,0,0,1-.73,1.71,3.68,3.68,0,0,1-2.32.58H28.14a6.44,6.44,0,0,1-1-.1,3.13,3.13,0,0,1-.85-.26,3.82,3.82,0,0,1-1-.66,4.29,4.29,0,0,1-.68-.82,4.62,4.62,0,0,1-.47-.91c-.12-.31-.24-.62-.34-.92a6.82,6.82,0,0,0-.69-1.45,11.35,11.35,0,0,0-1-1.42,13.6,13.6,0,0,0-1.3-1.34,16,16,0,0,0-1.52-1.2l7.54-3.19-.71-1.73-8.55,3.68-.26,2.1.9.71c.34.27.7.57,1.06.9s.73.67,1.08,1a11.32,11.32,0,0,1,.93,1.1,6.08,6.08,0,0,1,.6,1,2.49,2.49,0,0,1,.2.89,1.48,1.48,0,0,1,0,.21,1.68,1.68,0,0,1-.45.94,3.33,3.33,0,0,1-1.24.74,7.77,7.77,0,0,1-1.86.4c-.81.1-1.86.17-3.16.23h-.43l-.79,0a13.4,13.4,0,0,1-1.37-.16,13,13,0,0,1-1.38-.28,9.52,9.52,0,0,1-1.24-.39,4.71,4.71,0,0,1-1-.49,1.58,1.58,0,0,1-.57-.59,1.53,1.53,0,0,1-.14-.66V222a3.42,3.42,0,0,1,.16-.85,5.76,5.76,0,0,1,.37-.85,7.64,7.64,0,0,1,.46-.76l-1.5-1.12-.12.17-.2.34c-.07.14-.16.3-.26.48s-.19.4-.28.63a4.74,4.74,0,0,0-.46,1.44c0,.32,0,.54,0,.66a3.29,3.29,0,0,0,.17,1.07,3.17,3.17,0,0,0,.69,1.14,5.15,5.15,0,0,0,1.12.87,7.64,7.64,0,0,0,1.45.63,13.58,13.58,0,0,0,1.67.42,17,17,0,0,0,1.78.24c.61,0,1.22.07,1.81.07,1.13,0,2.11,0,3-.09a11.77,11.77,0,0,0,2.21-.35,5.25,5.25,0,0,0,1.62-.73,4.44,4.44,0,0,0,1.18-1.22A5.37,5.37,0,0,0,25.33,226a7,7,0,0,0,2.69.6h9a8.13,8.13,0,0,0,2.32-.28,3.63,3.63,0,0,0,1.56-.9,3.14,3.14,0,0,0,1,.86,3.45,3.45,0,0,0,1.41.31v0H44.8c.6,0,1.12,0,1.56-.07a7.75,7.75,0,0,0,1.16-.22,3.6,3.6,0,0,0,.86-.38,3.66,3.66,0,0,0,.67-.52,3.14,3.14,0,0,0,1,.86,3.45,3.45,0,0,0,1.41.31v0Z"/><rect fill="#f4f5f7" x="54.34" y="231.9" width="2.01" height="2" transform="translate(-148.52 107.42) rotate(-45.02)"/><polygon fill="#f4f5f7" points="78.75 238.26 83.53 236.57 83.53 235.57 78.75 237.2 78.75 238.26"/><polygon fill="#f4f5f7" points="80.61 230.03 79.06 228.47 77.5 230.04 79.04 231.59 80.61 230.03"/><rect fill="#f4f5f7" x="80.17" y="231.9" width="2.01" height="2" transform="translate(-140.91 125.61) rotate(-45)"/><rect fill="#f4f5f7" x="82.11" y="228.93" width="2.21" height="2.18" transform="translate(-138.27 126.21) rotate(-45)"/><path fill="#f4f5f7" d="M77.71,226.61h1.87a10.62,10.62,0,0,0,1.51-.11,5.61,5.61,0,0,0,1.34-.36,3.82,3.82,0,0,0,1.08-.69,3.12,3.12,0,0,0,.75-1.07,3.83,3.83,0,0,0,.29-1.53c0-.1,0-.2,0-.3a10.62,10.62,0,0,0-.49-2.44c-.1-.31-.2-.61-.31-.88s-.21-.52-.3-.73l-.22-.5-.09-.2-1.7.84.83,2a5.34,5.34,0,0,1,.31.93,4.35,4.35,0,0,1,.12.69c0,.17,0,.3,0,.38a2.9,2.9,0,0,1,0,.43,1.88,1.88,0,0,1-.14.5,1.5,1.5,0,0,1-.53.63,2.76,2.76,0,0,1-.8.34,4.74,4.74,0,0,1-1,.13c-.35,0-.71,0-1.07,0h-9L70,226.6l.21,0,.4.09.52.12.61.18.67.21a6.14,6.14,0,0,1,.91.4A4.42,4.42,0,0,1,74,228a1.55,1.55,0,0,1,.34.34.56.56,0,0,1,.1.27,1.21,1.21,0,0,1-.32.82,2.87,2.87,0,0,1-.81.61,6.26,6.26,0,0,1-1.11.43,11.64,11.64,0,0,1-1.21.28c-.39.07-.76.12-1.1.15s-.59,0-.78,0-.68,0-1.09,0a6.66,6.66,0,0,1-1.24-.15,4.93,4.93,0,0,1-1.2-.43,2.68,2.68,0,0,1-1-.87,4.24,4.24,0,0,1-.6-2.38,16.8,16.8,0,0,1,1.5-6l-1.74-.71a19.15,19.15,0,0,0-1.62,6.22c0,.16,0,.31,0,.46a5.94,5.94,0,0,0,.92,3.44,3.52,3.52,0,0,0,1.13,1.2,5.63,5.63,0,0,0,1.51.7,8.53,8.53,0,0,0,1.7.33c.59,0,1.16.08,1.71.08a12.41,12.41,0,0,0,1.41-.09,11.16,11.16,0,0,0,1.58-.28,11.75,11.75,0,0,0,1.55-.52,5.7,5.7,0,0,0,1.34-.79,3.83,3.83,0,0,0,1-1.09,3,3,0,0,0,.37-1.44,3.59,3.59,0,0,0,0-.44,2.79,2.79,0,0,0-.15-.5,3.93,3.93,0,0,0-.32-.53,3.32,3.32,0,0,0-.53-.53h2.46Z"/><rect fill="#f4f5f7" x="98.4" y="219.34" width="2.2" height="2.21" transform="translate(-126.71 134.85) rotate(-44.98)"/><path fill="#f4f5f7" d="M118.22,221a3.82,3.82,0,0,0-.65-1.11,3.28,3.28,0,0,0-1-.79,2.86,2.86,0,0,0-1.33-.3,2.26,2.26,0,0,0-1.1.26,2.79,2.79,0,0,0-.84.65,4.57,4.57,0,0,0-.66.93c-.2.34-.38.7-.55,1l-.58,1.15a5.13,5.13,0,0,1-.69,1,3,3,0,0,1-1,.7,3.38,3.38,0,0,1-1.41.26,3.68,3.68,0,0,1-.71-.08,2.31,2.31,0,0,1-.8-.38,4.54,4.54,0,0,1-.88-.88,9.86,9.86,0,0,1-1-1.57c-.18-.38-.34-.68-.47-.91l-.23-.38-1.58,1a2.74,2.74,0,0,1,.18.28,6.13,6.13,0,0,1,.38.77c.15.33.3.71.45,1.15a9.88,9.88,0,0,1,.34,1.4,9.29,9.29,0,0,1,.13,1.5v.12a6.34,6.34,0,0,1-.28,1.65,3.69,3.69,0,0,1-1.67,2.09,5.21,5.21,0,0,1-1.44.56,8.43,8.43,0,0,1-1.83.19,5.25,5.25,0,0,1-1.44-.18,4.69,4.69,0,0,1-1.11-.46,3.65,3.65,0,0,1-.8-.63,4.31,4.31,0,0,1-.55-.72,3.74,3.74,0,0,1-.48-1.3,5.32,5.32,0,0,1-.06-.81c0-.1,0-.21,0-.32a8.35,8.35,0,0,1,.13-1.12c.07-.37.15-.72.25-1.06s.21-.66.32-.94a6.92,6.92,0,0,1,.33-.75,3.16,3.16,0,0,1,.29-.49l-1.52-1.11a12.43,12.43,0,0,0-1.35,3.12,9.16,9.16,0,0,0-.3,1.54c0,.43-.05.77-.05,1a8,8,0,0,0,.08,1.19,6.18,6.18,0,0,0,.74,2.17,5,5,0,0,0,1.38,1.53,5.9,5.9,0,0,0,1.89.9,8.38,8.38,0,0,0,2.28.3,10.09,10.09,0,0,0,2.23-.24,7.06,7.06,0,0,0,1.92-.76,5.86,5.86,0,0,0,1.52-1.29,5.73,5.73,0,0,0,1-1.86,7,7,0,0,0,.32-1.39,9.64,9.64,0,0,0,.07-1.14c0-.14,0-.29,0-.43a4.64,4.64,0,0,0,2.11.57h.4c.31,0,.61,0,.89,0a4.42,4.42,0,0,0,1-.22,3.15,3.15,0,0,0,.86-.47,3.79,3.79,0,0,0,.78-.81c.29.22.61.43.95.64a7,7,0,0,0,1.07.52,4.1,4.1,0,0,0,1,.26c.26,0,.46.05.58.05a3,3,0,0,0,.78-.1,2.23,2.23,0,0,0,1-.62,3.23,3.23,0,0,0,.68-1,3.9,3.9,0,0,0,.3-1.09,7,7,0,0,0,.06-.8,4.91,4.91,0,0,0,0-.67A5.16,5.16,0,0,0,118.22,221Zm-1.44,2.29a2.46,2.46,0,0,1-.16.66,1.6,1.6,0,0,1-.26.47.62.62,0,0,1-.31.22,1.79,1.79,0,0,1-.34,0,2.23,2.23,0,0,1-.85-.19,7.53,7.53,0,0,1-1.59-.92l.52-1,.42-.81a4.4,4.4,0,0,1,.36-.57,1.34,1.34,0,0,1,.33-.34.66.66,0,0,1,.36-.11,1.12,1.12,0,0,1,.5.11,1.4,1.4,0,0,1,.38.3,1.62,1.62,0,0,1,.28.39,2.85,2.85,0,0,1,.18.41,2.36,2.36,0,0,1,.11.36,1.21,1.21,0,0,1,.05.23,2.89,2.89,0,0,1,0,.5C116.8,223,116.79,223.14,116.78,223.24Z"/><path fill="#f4f5f7" d="M122.88,211.56l-1.87.28q.33,3,.52,7.63c0,.53,0,1.08,0,1.68s0,1,0,1.53c0,1.18-.09,2.48-.2,3.91l1.88.1c.09-1.05.14-2.05.16-3s0-1.68,0-2.24c0-.93,0-1.92,0-3Q123.28,215.43,122.88,211.56Z"/><rect fill="#f4f5f7" x="136.84" y="216.14" width="2.19" height="2.21" transform="translate(-113.37 161.87) rotate(-45.16)"/><rect fill="#f4f5f7" x="132.93" y="216.13" width="2.19" height="2.21" transform="translate(-114.35 158.39) rotate(-45)"/><rect fill="#f4f5f7" x="152.34" y="213.45" width="2.2" height="2.21" transform="translate(-106.76 171.26) rotate(-44.98)"/><path fill="#f4f5f7" d="M160.87,220.45a8.54,8.54,0,0,1-1.17-.33c-.38-.14-.77-.29-1.15-.46s-.77-.35-1.14-.53l-1-.46c-.34-.15-.67-.29-1-.41s-.65-.21-1-.28a4.33,4.33,0,0,0-.93-.1,3.66,3.66,0,0,0-1.76.45,5.36,5.36,0,0,0-1.58,1.34,5.86,5.86,0,0,0-.45.6l-.33.52-.21.38a.91.91,0,0,0-.08.17l1.71.77a1.66,1.66,0,0,1,.09-.19,4.44,4.44,0,0,1,.27-.44c.11-.17.25-.36.41-.56a3.49,3.49,0,0,1,.53-.56,2.58,2.58,0,0,1,.66-.43,1.59,1.59,0,0,1,.74-.18,2.66,2.66,0,0,1,.65.09l.75.25c.26.1.53.22.82.35l.87.4c.39.19.78.37,1.18.54s.82.35,1.26.5c-.73.36-1.48.71-2.26,1.06a24.7,24.7,0,0,1-2.4.91,21.86,21.86,0,0,1-2.5.65,13.57,13.57,0,0,1-2.54.24h-1.93a2.68,2.68,0,0,1-2.22-.86,1.83,1.83,0,0,1-.4-.8,4.44,4.44,0,0,1-.12-.86v-.07c0-.1,0-.23,0-.37s.05-.33.08-.51.07-.34.11-.51.08-.31.11-.42l-1.81-.5c-.08.29-.18.58-.28.88a7.53,7.53,0,0,1-.38.88,5.08,5.08,0,0,1-.54.85,4.1,4.1,0,0,1-.75.75,6.12,6.12,0,0,1-2.46,1.17,14.84,14.84,0,0,1-3.59.37,12.5,12.5,0,0,1-3.82-.5,3.51,3.51,0,0,1-2.05-1.46,2.21,2.21,0,0,1-.3-.79,3.68,3.68,0,0,1-.07-.7,1.93,1.93,0,0,1,0-.24,3.6,3.6,0,0,1,.12-.82c.07-.26.14-.49.21-.68a3,3,0,0,1,.19-.48l.08-.19L127.9,218c0,.05-.12.24-.27.6a11.07,11.07,0,0,0-.46,1.43,4.26,4.26,0,0,0-.14.79c0,.24,0,.44,0,.59a4,4,0,0,0,0,.49,4.3,4.3,0,0,0,.18,1,4.1,4.1,0,0,0,.43,1,4.92,4.92,0,0,0,2.76,2.12,14.68,14.68,0,0,0,4.79.69c3.62,0,6.27-.87,7.94-2.63a3.43,3.43,0,0,0,.59,1,4.4,4.4,0,0,0,3.57,1.56h2.06a15.12,15.12,0,0,0,2.85-.27,23.18,23.18,0,0,0,2.73-.69,26,26,0,0,0,2.53-1c.8-.35,1.56-.7,2.25-1l1.38-.67c.43-.21.88-.41,1.32-.6l-.36-1.81A5.81,5.81,0,0,1,160.87,220.45Z"/><path fill="#f4f5f7" d="M165.9,211.56l-1.87.28q.33,3,.52,7.63c0,.53,0,1.08,0,1.68s0,1,0,1.53c0,1.18-.09,2.48-.2,3.91l1.88.1c.09-1.05.14-2.05.16-3s0-1.68,0-2.24q0-1.4,0-3Q166.31,215.43,165.9,211.56Z"/><path fill="#f4f5f7" d="M177.53,223.25a4.42,4.42,0,0,0-.11-1,7.33,7.33,0,0,0-.43-1.24,10.73,10.73,0,0,0-.7-1.28,12.87,12.87,0,0,0-.9-1.23,10.91,10.91,0,0,0-1-1.11,11.89,11.89,0,0,0-1.11-.93,6.62,6.62,0,0,0-1.13-.66l-.77,1.73a5.18,5.18,0,0,1,.88.52,8.23,8.23,0,0,1,.88.74,12,12,0,0,1,.83.9,9.69,9.69,0,0,1,.73,1,7.36,7.36,0,0,1,.56,1,4.78,4.78,0,0,1,.34,1,2.84,2.84,0,0,1,.08.59.74.74,0,0,1-.15.51,2,2,0,0,1-.8.59,3.14,3.14,0,0,1-.85.22l-.6,0a4.36,4.36,0,0,1-.72,0,7.22,7.22,0,0,1-1.16-.23,7.75,7.75,0,0,1-1.06-.37,6.06,6.06,0,0,1-.85-.44l-.78,1.79a3,3,0,0,0,.75.44,11.56,11.56,0,0,0,1.14.4c.41.12.83.21,1.24.29a6.79,6.79,0,0,0,1.08.11,7.43,7.43,0,0,0,1.15-.09,5.64,5.64,0,0,0,1.11-.28,4.42,4.42,0,0,0,1-.49,3.44,3.44,0,0,0,.8-.72,2.81,2.81,0,0,0,.29-.42,2.27,2.27,0,0,0,.21-.59A3.41,3.41,0,0,0,177.53,223.25Z"/><rect fill="#f4f5f7" x="188.87" y="231.9" width="2.01" height="2" transform="translate(-109.08 202.58) rotate(-45.02)"/><polygon fill="#f4f5f7" points="187.76 228.47 186.2 230.04 187.74 231.59 189.3 230.03 187.76 228.47"/><path fill="#f4f5f7" d="M186.22,226.61h2.05a10.66,10.66,0,0,0,1.52-.11,5.41,5.41,0,0,0,1.33-.36,3.74,3.74,0,0,0,1.09-.69,3.12,3.12,0,0,0,.75-1.07,3.83,3.83,0,0,0,.29-1.53c0-.1,0-.2,0-.3a10.18,10.18,0,0,0-.5-2.44,9.05,9.05,0,0,0-.3-.88c-.11-.28-.21-.52-.3-.73l-.22-.5-.09-.2-1.7.84.83,2a6.34,6.34,0,0,1,.31.93,4.35,4.35,0,0,1,.12.69c0,.17,0,.3,0,.38a2.9,2.9,0,0,1,0,.43,1.88,1.88,0,0,1-.14.5,1.52,1.52,0,0,1-.54.63,2.58,2.58,0,0,1-.79.34,4.74,4.74,0,0,1-1,.13q-.52,0-1.08,0h-1.63a1.78,1.78,0,0,1-.88-.23,2.52,2.52,0,0,1-.75-.72,6.38,6.38,0,0,1-.71-1.27,19.8,19.8,0,0,1-.7-1.88l-1.8.55c.08.24.17.53.28.89s.22.72.32,1.12.21.81.3,1.23a9.06,9.06,0,0,1,.21,1.17,3.49,3.49,0,0,1,0,.35,3.22,3.22,0,0,1-.13.93,4.71,4.71,0,0,1-.51,1.23,6.49,6.49,0,0,1-.86,1.13,10.86,10.86,0,0,1-1.1,1,15.4,15.4,0,0,1-1.28.91c-.45.28-.91.54-1.36.77l.82,1.69a17.62,17.62,0,0,0,2.33-1.41,12.48,12.48,0,0,0,2-1.79,8.55,8.55,0,0,0,1.41-2.11,5.45,5.45,0,0,0,.54-2.38v0a1.7,1.7,0,0,0,.5.4,1.84,1.84,0,0,0,.51.21,2.12,2.12,0,0,0,.46.08h.35Z"/><rect fill="#f4f5f7" x="190.81" y="228.93" width="2.21" height="2.18" transform="translate(-106.44 203.07) rotate(-45)"/></g></g></g></g></svg>